<?xml version="1.0" standalone="no"?>
<!DOCTYPE svg PUBLIC "-//W3C//DTD SVG 1.1//EN" "http://www.w3.org/Graphics/SVG/1.1/DTD/svg11.dtd" >
<svg xmlns="http://www.w3.org/2000/svg">
<metadata></metadata>
<defs>
<font id="bulletsregular" horiz-adv-x="2045" >
<font-face units-per-em="2048" ascent="1536" descent="-512" />
<missing-glyph horiz-adv-x="1024" />
<glyph horiz-adv-x="2048" />
<glyph horiz-adv-x="2048" />
<glyph unicode="&#xd;" horiz-adv-x="2048" />
<glyph unicode=" "  horiz-adv-x="1024" />
<glyph unicode="&#x09;" horiz-adv-x="1024" />
<glyph unicode="&#xa0;" horiz-adv-x="1024" />
<glyph unicode="-" horiz-adv-x="1613" d="M0 389v404h371v-404h-371zM371 2v387h407v-387h-407zM371 793v374h407v-374h-407z" />
<glyph unicode="0" horiz-adv-x="1746" d="M20.5 788.5q6.5 40.5 40.5 63.5l1004 641q25 16 52.5 19.5t50 -4t37 -23t14.5 -37.5v-1335q0 -68 -48.5 -86.5t-105.5 10.5l-1004 674q-47 37 -40.5 77.5z" />
<glyph unicode="1" d="M-4 784l850 850h721l-850 -850l850 -790h-721z" />
<glyph unicode="2" horiz-adv-x="2064" d="M-4 788l1319 752l-486 -749l486 -803z" />
<glyph unicode="3" d="M2 756l610 469l2 -385l797 2v-178l-797 -2l-2 -406z" />
<glyph unicode="4" horiz-adv-x="2463" d="M5 792q5 46 34 62l1137 774q20 0 33.5 -7t24.5 -21.5t11 -40.5v-394h838h54.5t59 -27.5t35.5 -84.5v-471q-6 -68 -40.5 -88.5t-58.5 -19.5t-50 1h-838v-420q0 -20 -16.5 -40.5t-52.5 -16.5l-1137 713q-39 35 -34 81z" />
<glyph unicode="5" horiz-adv-x="2254" d="M-27 1096q123 90 251 185t235 173q125 92 243 178v-358q205 -2 355.5 -50t253 -128t161 -184.5t82 -216t15.5 -226.5t-40 -214t-83 -178t-115 -120q35 49 60.5 137t25.5 190.5t-33.5 208t-115.5 191.5t-219.5 140.5t-346.5 54.5v-457q-127 127 -253 250 q-55 51 -116 108.5t-122 112.5t-121.5 107.5t-116.5 95.5z" />
<glyph unicode="6" horiz-adv-x="2324" d="M-27 526q111 84 243 189.5t249 202.5q135 113 272 227v-434q209 0 346.5 54t219 140t115.5 191.5t34 208t-25.5 190.5t-60.5 137q63 -41 114.5 -119.5t83 -179t40 -214t-15 -225.5t-82 -216.5t-161 -184t-253 -128t-355.5 -50.5v-358q-129 96 -260 195q-115 86 -248 184 t-256 190z" />
<glyph unicode="7" horiz-adv-x="2666" d="M0 557q0 221 84 416.5t228.5 341t340 230.5t420.5 85q223 0 419 -85t340 -230.5t228 -341t84 -416.5q0 -223 -84 -418.5t-228 -340t-340 -228.5t-419 -84q-150 0 -287 38t-256.5 107.5t-217 167t-167 216t-107.5 256t-38 286.5zM270 557q0 -166 62.5 -313.5t171 -256 t255 -172t314.5 -63.5q166 0 313.5 63.5t256 172t172 256t63.5 313.5q0 168 -63.5 314.5t-172 255t-256 172t-313.5 63.5q-168 0 -314.5 -63.5t-255 -172t-171 -255t-62.5 -314.5zM573 551q0 10 8.5 15t14.5 16l657 393q10 4 20.5 6t26.5 -6q14 -6 19.5 -16.5t5.5 -16.5 v-788q0 -10 -6 -22.5t-19 -18.5q-4 -2 -16 -2t-31 10l-657 395q-23 14 -23 35z" />
<glyph unicode="8" horiz-adv-x="1331" d="M4 410v182h182v268h269v180h180v-180h-180v-268h-269v-182h269v-271h180v-178h-180v178h-269v271h-182z" />
<glyph unicode="9" horiz-adv-x="1654" d="M0 442v195h197v194h192v197h197v-197h-197v-194h197v-195h-197v-196h197v-195h-197v195h-192v196h-197zM197 442v195h192v-195h-192zM829 442v195h197v-195h-197z" />
<glyph unicode="A" horiz-adv-x="1732" d="M2 80l104 205q18 53 62.5 71.5t97.5 25.5t107.5 12t93.5 32q14 6 25.5 23.5t18.5 37t11 40t4 36.5q-31 27 -55.5 53.5t-24.5 85.5q-16 45 -19 102.5t-3 119.5q-23 23 -31 48t-8 52t6 54.5t12 58.5q47 74 130 118.5t174 44.5q92 0 171.5 -45t112.5 -118q6 -31 12.5 -58.5 t6.5 -54.5t-8.5 -52.5t-30.5 -47.5q11 -41 11 -80q0 -20 -3 -38q-8 -58 -8 -104q-16 -59 -37 -85.5t-66 -53.5q0 -16 4.5 -36.5t11.5 -40t18 -37t26 -23.5q45 -25 97 -30t103.5 -12t99.5 -26.5t83 -72.5l82 -205q-29 -33 -49.5 -58.5t-53.5 -25.5q-68 -6 -128 -7 q-30 0 -60 -0.5t-60 0.5q-60 1 -123 4t-133 3h-118q-138 0 -276 -7q-46 -2 -93 -2q-94 0 -193 9q-35 0 -55 25.5t-49 58.5z" />
<glyph unicode="B" horiz-adv-x="2054" d="M4 516v205l270 63v140l-65 202q0 25 1 38.5t7 19.5t19.5 7t37.5 1q0 25 10.5 38t22.5 19q14 8 35 8l203 -65q25 0 40 1t27.5 7t27.5 19.5t42 37.5l66 207h204l64 -207q27 -25 42 -38t28.5 -19t28.5 -7t40 -1l203 65q49 0 57 -8t8 -57q49 0 57.5 -8t8.5 -58l-66 -202 q0 -20 9 -43q6 -20 19 -45t38 -52l207 -63v-205l-207 -65q-25 -27 -38 -42.5t-19.5 -27.5t-7.5 -27.5t-1 -40.5l66 -202q0 -20 -8 -35q-6 -12 -19.5 -22.5t-38.5 -10.5q0 -25 -1 -38t-7 -19t-19.5 -7.5t-37.5 -1.5l-203 66h-139l-64 -270h-204l-66 270h-137l-203 -66 q-20 0 -35 9q-12 6 -22.5 19t-10.5 38q-25 0 -38 10t-19 23q-8 14 -8 35l65 202v138zM475 651q0 -407 408 -407q154 0 248 101t94 306q0 76 -24.5 139.5t-70 108.5t-109 69.5t-138.5 24.5q-205 0 -306.5 -94t-101.5 -248z" />
<glyph unicode="C" horiz-adv-x="1941" d="M-4 819q0 99 35 199q39 112 127 207q86 90 206.5 136t246.5 49h17q116 0 222 -38q114 -41 184 -123q59 -70 99.5 -160t51.5 -189q4 -34 4 -67q-1 -65 -15 -133q-22 -102 -84 -194l290 -275q40 -47 58 -106q5 -15 5 -31v-5q0 -40 -28 -79q-14 -18 -38.5 -30.5t-52.5 -15.5 q-8 -1 -17 -1q-19 0 -39 5q-28 7 -47 28l-349 344q-51 -66 -141 -90q-60 -16 -126 -16h-8q-29 0 -57 2q-100 10 -198 51t-166 106q-82 80 -128 184.5t-51 216.5q-1 13 -1 25zM219 834l2 -34q6 -68 34 -128t71 -105q49 -51 120.5 -79.5t149.5 -32.5q6 -1 11 -1l11 1 q67 1 131 21q75 24 128 81q43 41 71.5 109.5t32.5 147.5q1 11 1 21q0 68 -22 138q-26 80 -90 143q-43 37 -114.5 60.5t-151.5 23.5t-159.5 -30.5t-143.5 -104.5q-49 -59 -67 -128q-14 -52 -15 -103z" />
<glyph unicode="D" horiz-adv-x="2316" d="M-6 4v733q0 37 29.5 67t66.5 30h293v-879h-293q-37 0 -66.5 6t-29.5 43zM580 57v729h49q16 0 27.5 10.5t24.5 38t34.5 73.5t60.5 120q18 18 34.5 37.5t31 43.5t22.5 51.5t8 64.5q35 35 74 71.5t72 75.5q18 18 43.5 48t48.5 80t39 126t16 189q-1 16 23 23q14 4 31 4 q12 0 25 -2q32 -5 64.5 -23.5t51.5 -53.5q37 -37 56.5 -82t23.5 -91q1 -14 1 -27q-1 -32 -7 -63q-10 -44 -27 -79q-18 -37 -50 -92t-58.5 -109.5t-40.5 -98.5q-5 -17 -5 -30q0 -21 13 -32h258q74 0 141.5 -6t103.5 -45q18 0 43 -16.5t47.5 -44t38 -62.5t15.5 -72 q-14 -10 -23 -20q-10 -10 -16 -24t-6 -32q0 -14 6 -24q10 -23 39 -23v-102q0 -16 -14.5 -34.5t-33 -37t-32.5 -36t-14 -36.5q14 -14 24 -36q10 -18 17.5 -46t7.5 -65q0 -18 -15.5 -34.5t-34 -33t-34 -33t-15.5 -32.5v-103q-37 -37 -74.5 -68.5t-72.5 -31.5h-410h-237z" />
<glyph unicode="E" horiz-adv-x="2254" d="M29 882q0 48 17 85q38 80 130 90q9 1 18 1q68 0 120 -52q60 -60 106 -195q12 -38 13 -71q0 -5 -1 -9q-2 -37 -17.5 -67.5t-39.5 -53.5t-53 -37q-35 -13 -68 -13q-12 0 -22 1q-42 6 -75.5 30.5t-60 65.5t-43.5 93q-24 74 -24 132zM242 112q10 28 18 54q4 14 28.5 67.5 t63.5 124t91.5 148.5t116 144.5t135 109.5t147.5 43q61 0 130.5 -34t138.5 -88t131.5 -120.5t110.5 -131t76.5 -120t28.5 -86.5q0 -70 -23.5 -113.5t-64.5 -69.5t-96 -35t-119 -9q-31 0 -45 22.5t-36.5 50t-64.5 51t-126 27.5h-20q-48 0 -78 -8q-37 -10 -62 -26.5t-44.5 -37 t-44 -38t-61 -29.5t-98.5 -12q-115 0 -166 18t-65 44q-7 13 -7 27q0 15 5 27zM393 1367q0 60 15.5 115.5t48 96.5t92.5 51q14 2 28 2q45 0 87 -26q54 -34 94.5 -90t64 -124.5t25.5 -129.5v-22q0 -120 -40 -199q-44 -86 -142 -111q-12 -3 -25 -3q-30 -1 -60 17 q-42 24 -78 72.5t-62.5 112t-39.5 131.5q-8 47 -8 107zM961 1053q0 16 1 33q4 62 11 122q10 78 37.5 133.5t65.5 90t82 48.5q31 10 62 11q13 0 25 -2q55 -8 90 -48q35 -39 51 -95q16 -52 16 -111v-7q-1 -62 -16 -112q-18 -68 -50.5 -122t-72.5 -91q-39 -37 -87 -53 q-35 -12 -69 -12q-13 0 -26 2q-51 12 -77 48t-36 86q-7 37 -7 79zM1396 731q0 13 2 26q5 40 29 81q77 128 143 166q48 28 88 28q14 0 28 -4q43 -12 62 -47q18 -35 22 -81q1 -12 1 -23v-8q0 -31 -7 -65q-10 -50 -25 -93q-18 -49 -48 -81t-64 -48q-30 -14 -60 -14h-4h-5 q-34 1 -63 14q-33 14 -57.5 40.5t-34.5 60.5q-7 23 -7 48z" />
<glyph unicode="F" horiz-adv-x="1984" d="M-12 453q0 53 40 89t98 53q49 14 105 14h19q66 -3 121 -27v546v324l1018 -78v-96v-1026q0 -39 -36 -77t-91.5 -66.5t-120 -47t-121.5 -18.5q-59 0 -106.5 18.5t-80 47t-51 66.5t-18.5 77q0 68 44 111t108.5 66.5t140.5 28.5q25 2 49 2q48 0 92 -7v604l-643 47v-651 q0 -39 -26.5 -75t-70.5 -63.5t-99.5 -45t-110.5 -17.5q-57 0 -105.5 17.5t-82 45t-53 63.5t-19.5 75z" />
<glyph unicode="G" horiz-adv-x="1646" d="M0 715q0 104 38 194t104.5 157t155.5 104.5t194 37.5q102 0 192 -37.5t156.5 -104.5t104.5 -157t38 -194q0 -102 -38 -192.5t-104.5 -156t-156.5 -103.5t-192 -38q-104 0 -193.5 38t-156 103.5t-104.5 156t-38 192.5z" />
<glyph unicode="H" horiz-adv-x="1634" d="M-2 717v20q2 123 41 218.5t106.5 162t160.5 101t204 34.5q113 0 207 -38.5t162.5 -107.5t107.5 -163t39 -207q0 -111 -39 -205t-107.5 -161.5t-162.5 -106.5t-207 -39q-111 0 -206 39t-163.5 106.5t-107.5 161.5q-35 86 -35 185zM215 737q2 -80 27.5 -136t67.5 -92 t94.5 -52.5t105.5 -16.5q82 0 138.5 26t91 66.5t50 95t19.5 109.5v10v5q0 37 -13 80q-16 52 -51.5 97.5t-94 76t-140.5 30.5q-53 0 -106.5 -18.5t-96.5 -56t-69 -93.5q-23 -50 -23 -115v-5v-11z" />
<glyph unicode="I" horiz-adv-x="1333" d="M33 262v782h809v-782h-809zM193 414h481v465h-481v-465z" />
<glyph unicode="J" d="M-4 70v880q0 25 1 39.5t7 20.5t20.5 7t41.5 1h47q0 127 37.5 237.5t112.5 192.5t186.5 130t259.5 48q139 0 250.5 -47t190.5 -129t122 -193.5t43 -238.5h43q25 0 37 -1t18 -7t7 -20.5t1 -39.5v-880q0 -27 -1 -41.5t-7 -20.5t-18.5 -7t-36.5 -1h-1292q-27 0 -41.5 1 t-20.5 7t-7 20.5t-1 41.5zM268 1018h879q0 102 -37 185t-98.5 141.5t-142.5 89.5q-76 30 -160 30h-11q-207 -4 -318.5 -121.5t-111.5 -324.5zM606 712.5q0 -17.5 4 -35.5q8 -36 68 -65l-70 -272h201l-59 272q53 29 63 65q5 16 5 33q0 19 -7 38q-12 35 -42 51t-62.5 16 t-60.5 -17.5t-36 -49.5q-4 -18 -4 -35.5z" />
<glyph unicode="K" horiz-adv-x="2041" d="M74 616v189h555v553h164v-553h553v-189h-553v-530h-164v530h-555z" />
<glyph unicode="L" horiz-adv-x="1634" d="M55 424v377h369v368h375v-368h370v-377h-370v-369h-375v369h-369z" />
<glyph unicode="M" horiz-adv-x="1851" d="M-4 961q0 137 52 259.5t142.5 215t212.5 145.5t261 53t262 -53t214 -145.5t144 -215t53 -259.5q0 -94 -29.5 -191.5t-76.5 -193t-107.5 -186.5t-124.5 -171q-147 -188 -335 -366q-188 178 -334 366q-63 80 -123 171t-107 186.5t-75.5 192.5t-28.5 192zM371 1128 q0 -63 23.5 -118.5t64.5 -96.5t95.5 -64.5t115.5 -23.5q63 0 119.5 23.5t98.5 64.5t65.5 96.5t23.5 118.5q0 61 -23.5 114.5t-63.5 92.5t-96.5 61.5t-119.5 22.5q-61 0 -115.5 -22.5t-96.5 -61.5t-66.5 -92t-24.5 -115z" />
<glyph unicode="N" horiz-adv-x="1955" d="M0 694q0 164 59.5 296t162 224.5t237.5 141.5t289 49q143 0 273 -59.5t229.5 -160t157.5 -231.5t58 -272t-58 -273.5t-157.5 -233.5t-229.5 -162.5t-273 -63.5h-12q-145 0 -275 47q-135 49 -237.5 144.5t-163 235.5t-60.5 318zM190 682q0 -104 47.5 -198.5t125 -164 t178.5 -110.5t207 -41t199 41t163 110.5t110 164t40 198.5q0 109 -40 203t-110 162.5t-163 109.5t-199 41q-111 0 -212.5 -40t-178 -109.5t-122 -163.5t-45.5 -203zM375 694q0 33 19.5 66t62.5 33h159v159q0 41 28 62.5t71 21.5q47 0 74.5 -21.5t27.5 -62.5v-159h168 q39 0 72 -29t33 -70q0 -53 -33 -78.5t-72 -25.5h-168v-166q0 -39 -28.5 -62.5t-75.5 -23.5q-41 0 -69 23.5t-28 62.5v166h-159q-43 0 -62.5 28.5t-19.5 75.5z" />
<glyph unicode="O" d="M0 694q0 164 59.5 296t162 224.5t237.5 141.5t289 49q143 0 273 -59.5t229.5 -160t157.5 -231.5t58 -272t-58 -273.5t-157.5 -233.5t-229.5 -162.5t-273 -63.5h-12q-145 0 -275 47q-135 49 -237.5 144.5t-163 235.5t-60.5 318zM190 682q0 -104 47.5 -198.5t125 -164 t178.5 -110.5t207 -41t199 41t163 110.5t110 164t40 198.5q0 109 -40 203t-110 162.5t-163 109.5t-199 41q-111 0 -212.5 -40t-178 -109.5t-122 -163.5t-45.5 -203zM375 694q0 33 19.5 66t62.5 33h528q39 0 72 -29t33 -70q0 -53 -33 -78.5t-72 -25.5h-528q-43 0 -62.5 28.5 t-19.5 75.5z" />
<glyph unicode="P" horiz-adv-x="1851" d="M-11 198q0 26 6 52q11 49 42 94t74 78l274 256l-287 309q-45 37 -71.5 84t-32.5 94q-2 14 -2 28q0 33 10 65q14 46 51 79q45 39 93 51q24 6 47 6t46 -6q46 -12 91 -43.5t86 -76.5l239 -334l275 334q41 39 83 74.5t86 53.5q31 13 64 13q14 0 29 -2q49 -8 104 -59 q34 -29 44 -74q5 -22 5 -46v-7q0 -21 -5 -43q-10 -50 -39 -99t-72 -86l-277 -315l271 -270q35 -35 61 -82q25 -46 34 -96q4 -21 4 -43q0 -28 -7 -55q-12 -48 -51 -81q-57 -48 -119 -48q-19 1 -40 5q-85 20 -175 111l-275 336l-272 -336q-41 -39 -88 -67q-47 -30 -92 -40 q-24 -6 -48 -5q-20 0 -39 4q-42 9 -75 46q-37 43 -47 93q-5 24 -5 48z" />
<glyph unicode="Q" horiz-adv-x="2156" d="M-16 934q0 113 69.5 212t189 173t282.5 117t347 43q186 0 353.5 -43t292 -117t197.5 -173t73 -212q0 -119 -73 -223.5t-197.5 -181t-291.5 -120.5t-354 -44h-94q-11 1 -21 1q-33 0 -62 -14q-38 -20 -72.5 -53t-66.5 -71t-63.5 -68.5t-62.5 -47.5q-20 -12 -40 -12 q-11 0 -23 4q-27 8 -29 33t5 58.5t17 75.5q10 38 10 78v7q-1 43 -20.5 84t-70.5 76q-61 41 -115.5 87t-94.5 98.5t-62.5 110.5t-22.5 122z" />
<glyph unicode="R" horiz-adv-x="2004" d="M27 995q0 92 35.5 175t97 144.5t143.5 98.5t174 37q49 0 95 -20.5t88 -52t79 -72.5t66 -82q31 41 73 82t89 72.5t99 52t105 20.5q88 0 164 -37t132.5 -98.5t88 -144.5t31.5 -175q0 -82 -33.5 -170t-89 -176t-125 -175t-143.5 -165q-172 -184 -391 -362q-217 178 -389 362 q-74 78 -143.5 165t-124 175t-88 176t-33.5 170z" />
<glyph unicode="S" horiz-adv-x="1431" d="M-2 799l836 835l114 -114l-684 -721l684 -688l-114 -113z" />
<glyph unicode="a" horiz-adv-x="2658" d="M8 575.5q0 65.5 41 116.5l727 719q49 53 111 53q35 0 59.5 -14t52.5 -39l121 -127l-143 -151l-35 36q-16 16 -32.5 18.5t-32.5 2.5q-14 0 -31 -2t-23 -19l-544 -534q-23 -23 -23 -58.5t23 -58.5l311 -311q33 -33 63 -33q39 0 60 33l540 526q25 27 25 62.5t-25 62.5 l-69 57l155 152l142 -141q53 -43 53 -108.5t-53 -115.5l-725 -729q-18 -16 -48 -29.5t-65 -13.5q-23 0 -53.5 13.5t-57.5 29.5l-483 490q-41 47 -41 112.5zM659 685q0 65 54 118l729 717q14 29 45 37t63 8q25 0 55.5 -8.5t53.5 -36.5l487 -490q41 -39 41 -103.5t-41 -113.5 l-731 -731q-23 -14 -50.5 -27.5t-57.5 -13.5q-35 0 -59.5 13.5t-51.5 27.5l-131 137l141 131l47 -33q6 -16 21.5 -23t32.5 -7q16 0 31.5 7t35.5 23l531 527q25 26 25 62v2q0 36 -25 61l-312 307q-8 20 -23.5 23.5t-31.5 3.5t-32.5 -3.5t-32.5 -23.5l-531 -533 q-27 -23 -27 -58.5t27 -70.5l57 -55l-141 -131l-145 143q-54 47 -54 114z" />
<glyph unicode="b" horiz-adv-x="2459" d="M2 1042h692l248 656l232 -656h696l-567 -438l208 -684l-569 410l-588 -410l207 684z" />
<glyph unicode="c" horiz-adv-x="2353" d="M4 678.5q0 66.5 51 112.5l156 155q45 51 111.5 51t111.5 -51l260 -260l789 797q45 45 111.5 45t113.5 -45l156 -164q49 -45 49 -111.5t-49 -111.5l-1057 -1057q-45 -45 -111.5 -45t-111.5 45l-23 14q0 6 -3 8t-3 7l-500 499q-51 45 -51 111.5z" />
<glyph unicode="d" horiz-adv-x="1746" d="M0 113v1335q0 23 14 38q16 14 38 22q15 5 33 6q9 0 17 -2q28 -4 52 -19l1003 -641q35 -24 41 -64q1 -5 1 -9q0 -36 -42 -68l-1003 -674q-35 -18 -66 -18h-4l-36 7q-48 18 -48 87z" />
<glyph unicode="e" d="M-4 -6l850 790l-850 850h721l850 -850l-850 -790h-721z" />
<glyph unicode="f" horiz-adv-x="2064" d="M-4 -12l485 803l-485 749l1319 -752z" />
<glyph unicode="g" d="M2 664v178l797 -2l2 385l610 -469l-610 -500l-2 406z" />
<glyph unicode="h" horiz-adv-x="2463" d="M0 582v471q4 57 36 84.5t59.5 27.5h54.5h837v394q0 27 11.5 41t24.5 21t34 7l1136 -774q29 -16 34 -62q1 -5 1 -11q0 -40 -35 -70l-1136 -713q-6 -1 -12 -1h-3q-25 0 -38 17q-16 20 -17 41v420h-837q-27 0 -50.5 -1t-58.5 19.5t-41 88.5z" />
<glyph unicode="i" horiz-adv-x="2254" d="M201 527v9q0 80 17 160q24 112 82 216t160.5 184t253 128t355.5 50v358q119 -86 244 -178q106 -78 234 -173t251 -185q-55 -43 -115.5 -95.5t-122 -107.5t-122 -112.5t-115.5 -108.5q-127 -123 -254 -250v457q-209 0 -346 -54.5t-219 -140.5t-116 -191.5t-34 -208 t26 -190.5t60 -137q-63 41 -114.5 120t-83 178t-39.5 214q-2 29 -2 58z" />
<glyph unicode="j" horiz-adv-x="2324" d="M201 1062q0 29 2 58q8 113 39.5 213.5t83 179t114.5 119.5q-35 -49 -60.5 -137t-25.5 -190.5t34 -208t116 -191.5t219 -140t346 -54v434q137 -115 272 -227q57 -47 121 -99.5t127.5 -102.5t126 -99.5t117.5 -90.5q-123 -92 -257 -190t-247 -184q-133 -98 -260 -195v358 q-205 2 -355.5 50.5t-253 128t-160.5 184t-82 216.5q-17 84 -17 168z" />
<glyph unicode="k" horiz-adv-x="2666" d="M0 557q0 221 84 416.5t228.5 341t340 230.5t418.5 85t420 -85t341 -230.5t228 -341t84 -416.5q0 -223 -84 -418.5t-228 -340t-341 -228.5t-420 -84t-418.5 84t-340 228.5t-228.5 340t-84 418.5zM266 557q0 -166 63.5 -313.5t172 -256t256 -172t313.5 -63.5 q168 0 314.5 63.5t255 172t171 256t62.5 313.5q0 168 -62.5 314.5t-171 255t-255 172t-314.5 63.5q-166 0 -313.5 -63.5t-256 -172t-172 -255t-63.5 -314.5zM819 154v788q0 6 5 16.5t20 16.5q13 6 22 6h4q10 -2 21 -6l657 -393q6 -10 14.5 -15.5t8.5 -15.5q0 -20 -23 -35 l-657 -395q-18 -10 -30.5 -10t-16.5 2q-12 6 -18.5 18t-6.5 23z" />
<glyph unicode="l" horiz-adv-x="1331" d="M4 -39v178h180v271h269v182h-269v268h-180v180h180v-180h269v-268h182v-182h-182v-271h-269v-178h-180z" />
<glyph unicode="m" horiz-adv-x="1654" d="M0 442v195h197v-195h-197zM440 51v195h197v196h-197v195h197v194h-197v197h197v-197h192v-194h197v-195h-197v-196h-192v-195h-197zM637 442h192v195h-192v-195z" />
<glyph unicode="n" horiz-adv-x="1613" d="M0 2v387h408v-387h-408zM0 793v374h408v-374h-408zM408 389v404h370v-404h-370z" />
<glyph unicode="o" horiz-adv-x="2252" d="M-8 631q0 164 54 307t160.5 250.5t260.5 169t354 61.5q186 0 331.5 -64.5t245 -173t150.5 -251t51 -299.5q0 -156 -62 -298.5t-168.5 -250t-249 -172t-302.5 -64.5q-176 0 -326.5 57.5t-261 160t-174 247t-63.5 320.5zM389 629q0 -98 35 -174t94.5 -127.5t137 -78 t161.5 -26.5q96 0 171 33t126 89t78 131t27 159q0 80 -28 151.5t-79 126t-125 86t-166 31.5q-80 0 -157.5 -24.5t-138 -73.5t-98.5 -125t-38 -178zM614 618q0 37 9.5 73t33 62.5t62.5 44t98 17.5h7q92 0 136 -53q46 -55 48 -133v-6q0 -83 -52 -137q-54 -56 -153 -56 q-98 0 -142.5 53.5t-46.5 134.5z" />
<glyph unicode="p" horiz-adv-x="2623" d="M-14 135v934q0 31 13 58.5t35.5 49t51.5 35t59 13.5h72h197h1171q8 0 17 -4q6 -4 12 -11.5t6 -21.5q131 -133 244 -240q47 -47 95 -91t89 -81t71.5 -62.5t47.5 -33.5v-117q-10 -8 -51 -52t-98.5 -104.5t-123 -129t-123 -126t-99.5 -95.5t-52 -38q0 -14 -6 -21t-12 -11 q-8 -4 -17 -4h-1171h-269q-31 0 -59.5 13t-51 35.5t-35.5 49t-13 55.5zM1229 600q0 -86 56 -138t145 -52q41 0 81.5 14t73.5 38.5t53.5 59.5t20.5 78q0 45 -20.5 82t-53.5 62.5t-73.5 40t-81.5 14.5q-88 0 -144.5 -53.5t-56.5 -145.5z" />
<glyph unicode="q" horiz-adv-x="1888" d="M0 35v497v840q0 51 24.5 97.5t63.5 81t89 54t99 19.5h424q51 0 100.5 -19.5t88.5 -54t62.5 -81t23.5 -97.5v-840v-497v-336l-498 582l-477 -582v336z" />
<glyph unicode="r" horiz-adv-x="1734" d="M10 676l1057 1190l-489 -895h616l-1030 -1194l491 899h-645z" />
<glyph unicode="s" horiz-adv-x="1431" d="M-2 111l684 688l-684 721l115 114l835 -835l-835 -801z" />
<glyph unicode="&#xad;" horiz-adv-x="1613" d="M0 389v404h371v-404h-371zM371 2v387h407v-387h-407zM371 793v374h407v-374h-407z" />
<glyph unicode="&#x2000;" horiz-adv-x="933" />
<glyph unicode="&#x2001;" horiz-adv-x="1866" />
<glyph unicode="&#x2002;" horiz-adv-x="933" />
<glyph unicode="&#x2003;" horiz-adv-x="1866" />
<glyph unicode="&#x2004;" horiz-adv-x="622" />
<glyph unicode="&#x2005;" horiz-adv-x="466" />
<glyph unicode="&#x2006;" horiz-adv-x="311" />
<glyph unicode="&#x2007;" horiz-adv-x="311" />
<glyph unicode="&#x2008;" horiz-adv-x="233" />
<glyph unicode="&#x2009;" horiz-adv-x="373" />
<glyph unicode="&#x200a;" horiz-adv-x="103" />
<glyph unicode="&#x2010;" horiz-adv-x="1613" d="M0 389v404h371v-404h-371zM371 2v387h407v-387h-407zM371 793v374h407v-374h-407z" />
<glyph unicode="&#x2011;" horiz-adv-x="1613" d="M0 389v404h371v-404h-371zM371 2v387h407v-387h-407zM371 793v374h407v-374h-407z" />
<glyph unicode="&#x2012;" horiz-adv-x="1613" d="M0 389v404h371v-404h-371zM371 2v387h407v-387h-407zM371 793v374h407v-374h-407z" />
<glyph unicode="&#x2013;" horiz-adv-x="1859" d="M0 389v404h488v-404h-488zM488 2v387h536v-387h-536zM488 793v374h536v-374h-536z" />
<glyph unicode="&#x2014;" horiz-adv-x="2883" d="M0 389v404h977v-404h-977zM977 2v387h1071v-387h-1071zM977 793v374h1071v-374h-1071z" />
<glyph unicode="&#x202f;" horiz-adv-x="373" />
<glyph unicode="&#x205f;" horiz-adv-x="466" />
<glyph unicode="&#xe000;" horiz-adv-x="500" d="M0 0z" />
</font>
</defs>
</svg>
